<?xml version="1.0" standalone="no"?>
<!DOCTYPE svg PUBLIC "-//W3C//DTD SVG 20010904//EN"
 "http://www.w3.org/TR/2001/REC-SVG-20010904/DTD/svg10.dtd">
<svg version="1.0" xmlns="http://www.w3.org/2000/svg"
 width="300.000000pt" height="300.000000pt" viewBox="0 0 300.000000 300.000000"
 preserveAspectRatio="xMidYMid meet">
<metadata>
Created by potrace 1.10, written by Peter Selinger 2001-2011
</metadata>
<g transform="translate(0.000000,300.000000) scale(0.100000,-0.100000)"
fill="#000000" stroke="none">
<path d="M1379 2935 c-150 -30 -285 -136 -353 -278 l-36 -73 -61 -12 c-33 -6
-67 -16 -75 -23 -26 -21 -17 -74 21 -121 85 -106 112 -178 140 -380 11 -79 15
-90 53 -133 29 -33 44 -62 53 -101 12 -54 12 -54 -27 -116 -44 -72 -46 -85
-25 -278 7 -63 15 -185 18 -271 5 -141 4 -159 -14 -200 -34 -74 -80 -127 -139
-160 l-55 -32 22 -23 c70 -75 205 -85 290 -23 13 10 23 7 50 -14 40 -30 55
-34 91 -24 32 8 68 63 68 104 0 16 -16 56 -36 89 -94 152 -124 258 -131 454
-7 206 39 345 129 391 71 36 69 47 -26 150 -133 143 -176 249 -176 432 0 197
92 353 257 434 66 32 83 37 151 37 99 0 181 -34 246 -104 75 -80 90 -120 89
-230 -2 -121 -27 -203 -92 -303 -85 -130 -187 -190 -259 -153 -70 36 -96 120
-47 152 15 10 32 13 47 8 29 -9 38 -22 38 -56 0 -32 6 -34 40 -12 40 27 50 45
50 90 0 34 -5 47 -28 66 l-28 23 29 55 c24 46 28 64 25 107 -6 69 -62 181
-106 210 -42 28 -105 38 -140 23 -53 -22 -88 -103 -57 -134 22 -22 59 -22 51
0 -15 40 47 60 77 26 36 -40 17 -93 -50 -140 -30 -22 -34 -22 -55 -8 -83 59
-213 -60 -153 -140 14 -19 14 -19 30 4 28 39 34 15 14 -60 -10 -40 -19 -89
-19 -109 0 -71 80 -184 166 -235 34 -20 56 -24 125 -26 118 -3 154 11 235 86
56 52 78 82 118 163 79 156 171 278 245 324 l24 15 -37 23 c-42 26 -126 128
-177 215 -49 84 -180 204 -271 249 -115 57 -193 67 -319 42z"/>
<path d="M2210 2878 c-52 -26 -99 -49 -103 -51 -5 -1 10 -30 32 -62 48 -69 71
-144 71 -231 0 -52 4 -64 25 -84 34 -32 34 -82 1 -108 -26 -20 -111 -185 -329
-637 -74 -154 -182 -377 -241 -495 -58 -119 -106 -218 -106 -222 0 -3 -11 -25
-23 -47 l-24 -42 -50 83 c-28 46 -81 139 -118 207 -38 69 -71 119 -73 112 -2
-7 1 -49 8 -93 19 -129 73 -265 138 -343 21 -26 24 -36 19 -85 -2 -31 -14 -75
-25 -97 -21 -40 -89 -103 -148 -138 -65 -37 -66 -34 98 -256 82 -112 154 -205
158 -207 12 -5 340 397 334 411 -2 7 -27 28 -55 47 -29 19 -70 55 -91 80 -39
44 -40 47 -34 101 6 63 126 338 171 391 14 17 35 49 47 72 11 22 31 55 43 71
12 17 49 77 81 133 l58 104 34 -67 33 -67 66 66 66 66 -36 39 c-51 57 -67 93
-67 153 0 77 20 140 83 264 65 125 123 200 222 284 119 101 233 160 353 184
53 11 57 14 56 39 0 15 -1 63 -2 108 l-2 81 -37 -5 c-135 -17 -306 63 -463
216 l-75 72 -95 -47z"/>
<path d="M650 2877 c-79 -74 -181 -143 -280 -189 -58 -27 -116 -55 -130 -62
-14 -8 -40 -17 -57 -21 -18 -3 -35 -10 -38 -15 -5 -8 32 -180 40 -189 2 -2 51
-7 108 -11 94 -7 109 -11 149 -38 25 -17 59 -47 77 -67 62 -71 216 -320 297
-481 57 -112 59 -118 59 -192 -1 -62 -5 -84 -23 -113 l-22 -36 42 -28 c24 -15
53 -37 66 -48 l22 -20 25 23 c34 32 47 77 35 120 -6 19 -10 59 -10 89 0 43 6
64 30 102 17 26 33 62 36 81 5 29 -2 41 -58 105 -71 82 -194 313 -250 468 -55
155 -41 263 52 392 22 31 40 60 40 65 0 5 -10 12 -23 17 -12 5 -49 25 -82 45
-33 20 -62 36 -65 36 -3 0 -21 -15 -40 -33z"/>
</g>
</svg>
